<svg width="24" height="24" viewBox="0 0 24 24" fill="none" xmlns="http://www.w3.org/2000/svg">
<g filter="url(#filter0_d_1987_17761)">
<path d="M11.0461 0C7.16097 0 4 3.16097 4 7.04606C4 10.9314 7.16097 14.0921 11.0461 14.0921C14.9314 14.0921 18.0921 10.9314 18.0921 7.04606C18.0921 3.16097 14.9314 0 11.0461 0ZM11.0461 12.7913C7.87816 12.7913 5.30081 10.214 5.30081 7.04609C5.30081 3.87819 7.87816 1.30081 11.0461 1.30081C14.214 1.30081 16.7913 3.87816 16.7913 7.04606C16.7913 10.214 14.214 12.7913 11.0461 12.7913Z" fill="white"/>
<path d="M19.8094 14.8898L16.0804 11.1608C15.8263 10.9067 15.4148 10.9067 15.1607 11.1608C14.9066 11.4147 14.9066 11.8266 15.1607 12.0805L18.8897 15.8095C19.0168 15.9365 19.1831 16 19.3496 16C19.5159 16 19.6824 15.9365 19.8094 15.8095C20.0635 15.5556 20.0635 15.1437 19.8094 14.8898Z" fill="white"/>
</g>
<defs>
<filter id="filter0_d_1987_17761" x="0" y="0" width="24" height="24" filterUnits="userSpaceOnUse" color-interpolation-filters="sRGB">
<feFlood flood-opacity="0" result="BackgroundImageFix"/>
<feColorMatrix in="SourceAlpha" type="matrix" values="0 0 0 0 0 0 0 0 0 0 0 0 0 0 0 0 0 0 127 0" result="hardAlpha"/>
<feOffset dy="4"/>
<feGaussianBlur stdDeviation="2"/>
<feComposite in2="hardAlpha" operator="out"/>
<feColorMatrix type="matrix" values="0 0 0 0 0 0 0 0 0 0 0 0 0 0 0 0 0 0 0.25 0"/>
<feBlend mode="normal" in2="BackgroundImageFix" result="effect1_dropShadow_1987_17761"/>
<feBlend mode="normal" in="SourceGraphic" in2="effect1_dropShadow_1987_17761" result="shape"/>
</filter>
</defs>
</svg>
